<svg xmlns="http://www.w3.org/2000/svg" viewBox="0 0 30 30"><g fill="none"><rect width="30" height="30" fill="#262626"/><path fill="#FFF" d="M22.4727656,6.60004687 L7.52723437,6.60004687 C7.01500781,6.60004687 6.60004687,7.01500781 6.60004687,7.52723437 L6.60004687,22.4727656 C6.60004687,22.9847813 7.01500781,23.3999531 7.52723437,23.3999531 L15.5733516,23.3999531 L15.5733516,16.8942187 L13.3841016,16.8942187 L13.3841016,14.3586797 L15.5733516,14.3586797 L15.5733516,12.4889297 C15.5733516,10.3188984 16.8985781,9.13741406 18.8344687,9.13741406 C19.7616563,9.13741406 20.5583906,9.2064375 20.7907031,9.23732812 L20.7907031,11.5049766 L19.4483203,11.5055391 C18.3954609,11.5055391 18.1917656,12.0058828 18.1917656,12.7398984 L18.1917656,14.3586797 L20.7023672,14.3586797 L20.3755078,16.8942187 L18.1917656,16.8942187 L18.1917656,23.3999531 L22.4727656,23.3999531 C22.9847813,23.3999531 23.3999531,22.9847812 23.3999531,22.4727656 L23.3999531,7.52723437 C23.3999531,7.01500781 22.9847812,6.60004687 22.4727656,6.60004687 Z"/></g></svg>