<svg xmlns="http://www.w3.org/2000/svg" viewBox="0 0 30 30"><g fill="none"><rect width="30" height="30" fill="#262626"/><g fill="#FFF" transform="translate(6.563 9.61)"><path d="M.040734375 5.39749219C-.064078125 2.64529688 2.34696094.102070313 5.10178125.0688828125 6.50596875-.0509296875 7.87169531.49415625 8.93507813 1.38405469 8.49907031 1.86276563 8.0548125 2.33688281 7.58170313 2.78057813 6.64582031 2.21214844 5.51971875 1.77909375 4.42657031 2.16360938 2.66235938 2.66578125 1.59553125 4.74780469 2.24716406 6.47322656 2.78777344 8.27453906 4.97978906 9.26329687 6.69707813 8.50617188 7.58697656 8.18800781 8.17223438 7.36725 8.42948438 6.48560156 7.41028125 6.46544531 6.39060938 6.47782031 5.37140625 6.4494375 5.36957813 5.84313281 5.36613281 5.23945313 5.36957813 4.63291406 7.06900781 4.63038281 8.77167187 4.62548438 10.4738672 4.64104688 10.578 6.12625781 10.3589531 7.71675 9.39353906 8.90899219 8.07060938 10.6114219 5.62659375 11.1108516 3.639 10.4434219 1.52847656 9.750375-.0050390625 7.62496875.040734375 5.39749219M13.7866875 3.10399219L15.3030469 3.10399219C15.3055547 3.61129687 15.3103594 4.12057031 15.3128906 4.62799219 15.8203125 4.63291406 16.3300313 4.63497656 16.8374531 4.63828125L16.8374531 6.15691406C16.3300313 6.15921094 15.8203125 6.16195312 15.3128906 6.16425 15.3085313 6.67373437 15.3055547 7.18115625 15.3030469 7.69089844 14.7958359 7.68860156 14.2884141 7.69089844 13.7837109 7.69089844 13.7786953 7.18115625 13.7786953 6.67373437 13.7741016 6.16699219 13.2669141 6.16195312 12.7569609 6.15921094 12.2504531 6.15691406L12.2504531 4.63828125C12.7569609 4.63497656 13.2639375 4.63291406 13.7741016 4.62799219 13.7766328 4.12057031 13.7816719 3.61129687 13.7866875 3.10399219"/></g></g></svg>