<svg xmlns="http://www.w3.org/2000/svg" viewBox="0 0 30 30"><g fill="none" fill-rule="evenodd"><rect width="30" height="30" fill="#262626" fill-rule="nonzero"/><path fill="#FFF" d="M21.4617891,13.7069297 L19.9994766,13.7069297 C20.1059063,14.120625 20.1690703,14.5527656 20.1690703,14.9996484 C20.1690703,17.8550625 17.8546172,20.1690703 14.9998828,20.1690703 C12.1452656,20.1690703 9.83092969,17.8550625 9.83092969,14.9996484 C9.83092969,14.5527656 9.89421094,14.120625 10.0007578,13.7069297 L8.53809375,13.7069297 L8.53809375,20.8151953 C8.53809375,21.1715625 8.82752344,21.460875 9.18492188,21.460875 L20.8149609,21.460875 C21.1724766,21.460875 21.4617891,21.1715625 21.4617891,20.8151953 L21.4617891,13.7069297 Z M21.4617891,9.18421875 C21.4617891,8.82752344 21.1724766,8.53809375 20.8149609,8.53809375 L18.8770313,8.53809375 C18.5201953,8.53809375 18.2309063,8.82752344 18.2309063,9.18421875 L18.2309063,11.1229687 C18.2309063,11.4796875 18.5201953,11.7690937 18.8770313,11.7690937 L20.8149609,11.7690937 C21.1724766,11.7690937 21.4617891,11.4796875 21.4617891,11.1229687 L21.4617891,9.18421875 Z M14.9998828,11.7690937 C13.2155156,11.7690937 11.7690937,13.2153047 11.7690937,14.9996484 C11.7690937,16.7838984 13.2155156,18.2309062 14.9998828,18.2309062 C16.7843672,18.2309062 18.2309062,16.7838984 18.2309062,14.9996484 C18.2309062,13.2153047 16.7843672,11.7690937 14.9998828,11.7690937 Z M21.4617891,23.3999531 L8.53809375,23.3999531 C7.46784375,23.3999531 6.60004688,22.5318047 6.60004688,21.460875 L6.60004688,8.53809375 C6.60004688,7.46772656 7.46784375,6.60004688 8.53809375,6.60004688 L21.4617891,6.60004688 C22.5325078,6.60004688 23.3999531,7.46772656 23.3999531,8.53809375 L23.3999531,21.460875 C23.3999531,22.5318047 22.5325078,23.3999531 21.4617891,23.3999531 Z"/></g></svg>