<svg xmlns="http://www.w3.org/2000/svg" viewBox="0 0 30 30"><g fill="none"><rect width="30" height="30" fill="#262626"/><g fill="#FFF" transform="translate(6.328 6.328)"><path d="M.486375 5.80010156L3.97120312 5.80010156 3.97120312 17.0013516.486375 17.0013516.486375 5.80010156zM2.22977344.231960937C3.34338281.231960937 4.24748437 1.13639062 4.24748437 2.25070313 4.24748437 3.36525 3.34338281 4.26967969 2.22977344 4.26967969 1.1116875 4.26967969.210117187 3.36525.210117187 2.25070313.210117187 1.13639063 1.1116875.231960937 2.22977344.231960937zM6.15520312 5.80010156L9.4921875 5.80010156 9.4921875 7.3314375 9.54002344 7.3314375C10.0042031 6.45079688 11.1401484 5.52210938 12.8338594 5.52210938 16.3586484 5.52210938 17.0100469 7.84148438 17.0100469 10.8581484L17.0100469 17.0013516 13.5292031 17.0013516 13.5292031 11.5541953C13.5292031 10.2552891 13.5067734 8.58421875 11.7201328 8.58421875 9.90874219 8.58421875 9.63227344 9.99984375 9.63227344 11.4612656L9.63227344 17.0013516 6.15520312 17.0013516 6.15520312 5.80010156z"/></g></g></svg>