<svg xmlns="http://www.w3.org/2000/svg" viewBox="0 0 30 30"><g fill="none"><rect width="30" height="30" fill="#262626"/><path fill="#FFF" d="M21.5027578,12.1277578 C21.5027578,15.9141563 19.3993359,18.74175 16.2961641,18.74175 C15.2545078,18.74175 14.2746797,18.1782422 13.9383281,17.5383047 C13.9383281,17.5383047 13.3781484,19.7625703 13.2598125,20.1915 C12.8426719,21.7066875 11.6133516,23.2241719 11.5183594,23.3496094 C11.4516562,23.4352031 11.3039062,23.4082031 11.2886719,23.2946719 C11.2617891,23.1012656 10.9488984,21.1875938 11.3179687,19.6266094 C11.5031484,18.8438438 12.5589844,14.3684063 12.5589844,14.3684063 C12.5589844,14.3684063 12.2507812,13.7520234 12.2507812,12.8414063 C12.2507812,11.4111328 13.0804922,10.343625 14.1117187,10.343625 C14.9894766,10.343625 15.4138125,11.002125 15.4138125,11.7919922 C15.4138125,12.6750234 14.8523672,13.9945313 14.5618125,15.2168672 C14.3191875,16.2409922 15.0750703,17.0755078 16.0851328,17.0755078 C17.9132109,17.0755078 19.1436797,14.7269531 19.1436797,11.944875 C19.1436797,9.83025 17.7200391,8.24650781 15.1289766,8.24650781 C12.2027109,8.24650781 10.3780781,10.4296875 10.3780781,12.8684297 C10.3780781,13.7086406 10.6265156,14.3021484 11.0144766,14.7603516 C11.1926719,14.9712656 11.2184062,15.0562969 11.1538594,15.2989219 C11.1059297,15.477 11.0016562,15.9036328 10.9558828,16.0734609 C10.8926016,16.3172109 10.694625,16.4051016 10.4730703,16.3149375 C9.12541406,15.7640156 8.49735938,14.2875 8.49735938,12.6282188 C8.49735938,9.88654688 10.8093984,6.60004687 15.3936797,6.60004687 C19.0793672,6.60004688 21.5027578,9.26547656 21.5027578,12.1277578 Z"/></g></svg>