<svg xmlns="http://www.w3.org/2000/svg" viewBox="0 0 30 30"><g fill="none"><rect width="30" height="30" fill="#262626"/><path fill="#FFF" d="M23.3999531,9.78972656 C22.7819766,10.0639453 22.1177578,10.2491016 21.420375,10.3324219 C22.1319609,9.90576562 22.6785234,9.23034375 22.9357969,8.42559375 C22.2699844,8.82042187 21.5322891,9.1074375 20.7472266,9.2619375 C20.1184922,8.592 19.2226406,8.17359375 18.2313516,8.17359375 C16.3277344,8.17359375 14.7845156,9.71671875 14.7845156,11.6201016 C14.7845156,11.8904062 14.8150547,12.1533984 14.8737656,12.4056328 C12.0092109,12.2618906 9.46952344,10.8897422 7.769625,8.80439062 C7.47288281,9.31342969 7.3029375,9.90555469 7.3029375,10.5372656 C7.3029375,11.7329297 7.91142187,12.7878516 8.83621875,13.4060625 C8.27121094,13.3882031 7.73974219,13.2330234 7.27511719,12.9748594 C7.27478906,12.9892734 7.27478906,13.0036875 7.27478906,13.0183359 C7.27478906,14.6882578 8.46290625,16.0812422 10.0396641,16.398 C9.750375,16.47675 9.44582812,16.5188672 9.13157812,16.5188672 C8.90946094,16.5188672 8.69350781,16.4971172 8.48303906,16.4570625 C8.92169531,17.8262344 10.1946328,18.8227734 11.7028359,18.8507109 C10.5231797,19.7751563 9.03705469,20.3260781 7.4221875,20.3260781 C7.14398437,20.3260781 6.86964844,20.3098359 6.60004687,20.2780078 C8.12542969,21.2560312 9.93700781,21.8264062 11.8835391,21.8264062 C18.2233359,21.8264062 21.6902109,16.5744844 21.6902109,12.0197344 C21.6902109,11.8702734 21.6867891,11.7217266 21.6801562,11.5738594 C22.3535156,11.0879531 22.9380703,10.4809687 23.3999531,9.78972656 Z"/></g></svg>