<svg xmlns="http://www.w3.org/2000/svg" viewBox="0 0 30 30"><g fill="none" fill-rule="evenodd"><rect width="30" height="30" fill="#262626" fill-rule="nonzero"/><g fill="#FFF" transform="translate(6.563 6.328)"><path fill-rule="nonzero" d="M0.037546875,17.1123516 L1.22428125,12.7775625 C0.49209375,11.5091016 0.107109375,10.0701094 0.107578125,8.59589062 C0.10940625,3.98369531 3.86191406,0.231398437 8.47251562,0.231398437 C10.7103047,0.2323125 12.8105156,1.1034375 14.3898047,2.68478906 C15.9690937,4.26567187 16.8383906,6.36726562 16.8374531,8.60252344 C16.835625,13.2144844 13.0828828,16.96725 8.47275,16.96725 C8.47251562,16.96725 8.47298437,16.96725 8.47275,16.96725 L8.46909375,16.96725 C7.06924219,16.9667813 5.69367187,16.6154531 4.47189844,15.9489375 L0.037546875,17.1123516 Z M4.67721094,14.4346641 L4.93125,14.5852734 C5.99854688,15.2188125 7.22235938,15.5538984 8.46977344,15.5545781 L8.47275,15.5545781 C12.3046875,15.5545781 15.4236563,12.4356094 15.4252734,8.60184375 C15.4259531,6.74423438 14.703375,4.99741406 13.3907344,3.68315625 C12.0780938,2.36915625 10.3324219,1.64498438 8.47549219,1.64428125 C4.64034375,1.64428125 1.521375,4.76303906 1.52001562,8.59633594 C1.5193125,9.90989063 1.88690625,11.1893438 2.58292969,12.2962266 L2.7481875,12.5594297 L2.04597656,15.1249688 L4.67721094,14.4346641 Z"/><path d="M12.6869297,10.5915 C12.6345,10.5043125 12.4953516,10.4521172 12.2863828,10.3472812 C12.0771797,10.2426797 11.0497266,9.73708594 10.8581484,9.66728906 C10.6665703,9.59770312 10.5271875,9.5626875 10.3878047,9.77189062 C10.2484219,9.98130469 9.847875,10.4521172 9.72609375,10.5915 C9.60410156,10.7309062 9.48210938,10.7485312 9.27314062,10.6439297 C9.06417187,10.5393281 8.3908125,10.3184531 7.59246094,9.60639844 C6.9710625,9.05226562 6.55150781,8.36767969 6.42975,8.1585 C6.30775781,7.94929687 6.41669531,7.83623437 6.52129687,7.73207812 C6.615375,7.63823437 6.73026562,7.48785937 6.83486719,7.36586719 C6.93923437,7.243875 6.97403906,7.15645312 7.04383594,7.01707031 C7.11342187,6.87766406 7.07861719,6.7554375 7.02644531,6.65085937 C6.97403906,6.54625781 6.55610156,5.51742187 6.38191406,5.09903906 C6.21232031,4.691625 6.03996094,4.74677344 5.91178125,4.74014062 C5.79002344,4.7341875 5.65040625,4.73282812 5.51102344,4.73282812 C5.37185156,4.73282812 5.14525781,4.78523437 4.95367969,4.9944375 C4.762125,5.20361719 4.22217187,5.70923437 4.22217187,6.73804687 C4.22217187,7.76688281 4.97109375,8.76067969 5.07569531,8.9000625 C5.1800625,9.03967969 6.54944531,11.1508828 8.64623437,12.0561328 C9.14475,12.2715 9.53407031,12.400125 9.83779687,12.4965 C10.338375,12.6555703 10.7940703,12.6331406 11.1540938,12.5793516 C11.5557891,12.5191406 12.39075,12.0737344 12.5649375,11.5855312 C12.7391016,11.0971172 12.7391016,10.6787109 12.6869297,10.5915 Z"/></g></g></svg>